# xmcd
#
# Track frame offsets: 
#        150
#        17782
#        32968
#        49699
#        64932
#        80835
#        95954
#        108550
#        121136
#        138102
#        152813
#        166941
#        183683
#        201414
#        214837
#        229875
#        242326
#        258478
#        273175
#        288277
#
# Disc length: 3992 seconds
#
# Revision: 2
# Processed by: cddbd v1.4PL0 Copyright (c) Steve Scherf et al.
# Submitted via: ExactAudioCopy v0.90b3
#
DISCID=290f9614
DTITLE=Eddy Raven - 20 Favorites
DYEAR=1900
DGENRE=Country
TTITLE0=Sooner Or Later
TTITLE1=In A Letter To You
TTITLE2=Cajun Song
TTITLE3=Rock Me In The Rhythm Of Your Love
TTITLE4=Ain't Nothin' But A Heartache
TTITLE5=I Know That Car
TTITLE6=Johnny's Got A Pistol
TTITLE7=Bayou Boys
TTITLE8=Somebody's Tearin' The Flag
TTITLE9=A Beautiful Mistake
TTITLE10=The Twelfth Of Never
TTITLE11=Angel Fire
TTITLE12=Island
TTITLE13=Too Much Candy For A Dime
TTITLE14=I'm Not Like That Now
TTITLE15=Leon And Maggie
TTITLE16=Like A Hurricane
TTITLE17=Watching It Go
TTITLE18=Zydeco Lady
TTITLE19=Thank God For Kids
EXTD=
EXTT0=
EXTT1=
EXTT2=
EXTT3=
EXTT4=
EXTT5=
EXTT6=
EXTT7=
EXTT8=
EXTT9=
EXTT10=
EXTT11=
EXTT12=
EXTT13=
EXTT14=
EXTT15=
EXTT16=
EXTT17=
EXTT18=
EXTT19=
PLAYORDER=
